<svg width="24" height="24" viewBox="0 0 20 20" fill="none" xmlns="http://www.w3.org/2000/svg">
<path d="M10.2234 2.71191H4.3914C3.54272 2.71191 2.72878 3.04901 2.12866 3.64912C1.52855 4.24924 1.19141 5.06323 1.19141 5.91191V13.9119C1.19141 14.7606 1.52855 15.5745 2.12866 16.1746C2.72878 16.7747 3.54272 17.1119 4.3914 17.1119H13.9914C14.8401 17.1119 15.654 16.7747 16.2542 16.1746C16.8543 15.5745 17.1914 14.7606 17.1914 13.9119V9.67991" stroke="#0E5FFE" stroke-width="1.2" stroke-linecap="round" stroke-linejoin="round"/>
<path d="M12.896 9.20752C11.8831 10.129 10.5765 10.6619 9.20806 10.7115C6.64003 10.7115 4.08003 8.57552 1.83203 4.31152" stroke="#0E5FFE" stroke-width="1.2" stroke-linecap="round" stroke-linejoin="round"/>
<path d="M16.2615 7.48591C17.7305 7.48591 18.9215 6.29502 18.9215 4.82596C18.9215 3.35691 17.7305 2.16602 16.2615 2.16602C14.7925 2.16602 13.6016 3.35691 13.6016 4.82596C13.6016 6.29502 14.7925 7.48591 16.2615 7.48591Z" stroke="#0E5FFE" stroke-width="1.0539" stroke-linecap="round" stroke-linejoin="round"/>
<path d="M16.5532 5.97425V6.26687C16.5532 6.31413 16.5345 6.35949 16.5011 6.3929C16.4676 6.42633 16.4223 6.44506 16.375 6.44506C16.3278 6.44506 16.2824 6.42633 16.249 6.3929C16.2156 6.35949 16.1968 6.31413 16.1968 6.26687V5.96632C16.0788 5.94693 15.9658 5.90426 15.8644 5.8408C15.763 5.7773 15.6753 5.69426 15.6063 5.59653C15.5812 5.56464 15.5672 5.52543 15.5664 5.48484C15.5664 5.46181 15.571 5.43896 15.5801 5.41776C15.5891 5.39659 15.6024 5.37743 15.6191 5.36153C15.6357 5.34562 15.6554 5.33323 15.677 5.32517C15.6986 5.31708 15.7216 5.31349 15.7446 5.31458C15.7675 5.31445 15.7901 5.31939 15.8108 5.32905C15.8315 5.33871 15.8497 5.35291 15.8643 5.37049C15.9494 5.48165 16.0649 5.56571 16.1968 5.61252V4.93689C15.843 4.79858 15.6648 4.59107 15.6648 4.32242C15.6702 4.17859 15.7267 4.0414 15.8242 3.93557C15.9218 3.82974 16.0539 3.76225 16.1968 3.74523V3.45261C16.1968 3.40534 16.2156 3.36005 16.249 3.32663C16.2824 3.2932 16.3278 3.27441 16.375 3.27441C16.4223 3.27441 16.4676 3.2932 16.5011 3.32663C16.5345 3.36005 16.5532 3.40534 16.5532 3.45261V3.74257C16.6522 3.75808 16.7471 3.79339 16.8321 3.84641C16.9171 3.89942 16.9905 3.96904 17.048 4.0511C17.0733 4.08101 17.0883 4.1184 17.0905 4.15753C17.0913 4.18032 17.0874 4.20301 17.0792 4.22429C17.0709 4.24557 17.0585 4.26499 17.0426 4.28138C17.0267 4.29776 17.0077 4.31074 16.9867 4.31963C16.9657 4.32851 16.9431 4.33308 16.9203 4.33306C16.8965 4.33293 16.873 4.32766 16.8514 4.31755C16.8298 4.30744 16.8107 4.29276 16.7953 4.27457C16.7319 4.19533 16.6483 4.13471 16.5532 4.09904V4.69752L16.6197 4.72407C16.9576 4.85707 17.1677 5.04861 17.1677 5.35185C17.1638 5.51431 17.098 5.66915 16.9838 5.78481C16.8696 5.90046 16.7157 5.96818 16.5532 5.97425ZM16.1968 4.54322V4.10962C16.1539 4.12518 16.1169 4.15386 16.0912 4.19158C16.0654 4.22927 16.0521 4.27411 16.0532 4.31976C16.0527 4.36695 16.0661 4.41326 16.0916 4.45294C16.1171 4.49265 16.1537 4.52404 16.1968 4.54322ZM16.7793 5.35983C16.7793 5.23215 16.6916 5.15501 16.5532 5.09383V5.62582C16.6167 5.61622 16.6745 5.58398 16.716 5.53512C16.7576 5.48623 16.7801 5.42398 16.7793 5.35983Z" fill="#0E5FFE"/>
</svg>
