<svg width="24" height="24" viewBox="0 0 21 21" fill="none" xmlns="http://www.w3.org/2000/svg">
<path d="M9.98864 17.4348H7.1362C6.25844 17.4126 5.41719 17.0789 4.76288 16.4933C4.10856 15.9078 3.68382 15.1087 3.56463 14.2388L2.76562 7.84668" stroke="#0E5FFE" stroke-width="1.19851" stroke-linecap="round" stroke-linejoin="round"/>
<path d="M17.1772 7.84668L16.9375 9.84423" stroke="#0E5FFE" stroke-width="1.19851" stroke-linecap="round" stroke-linejoin="round"/>
<path d="M2.79688 7.84567C7.44267 6.15952 12.5333 6.15952 17.179 7.84567" stroke="#0E5FFE" stroke-width="1.19851" stroke-linecap="round" stroke-linejoin="round"/>
<path d="M5.53711 7.06277L7.65449 3.05176" stroke="#0E5FFE" stroke-width="1.19851" stroke-linecap="round" stroke-linejoin="round"/>
<path d="M14.4377 7.06277L12.3203 3.05176" stroke="#0E5FFE" stroke-width="1.19851" stroke-linecap="round" stroke-linejoin="round"/>
<g clip-path="url(#clip0_688_2920)">
<path d="M16.9674 21.6486C19.5565 21.6486 21.6554 19.5497 21.6554 16.9605C21.6554 14.3714 19.5565 12.2725 16.9674 12.2725C14.3782 12.2725 12.2793 14.3714 12.2793 16.9605C12.2793 19.5497 14.3782 21.6486 16.9674 21.6486Z" stroke="#0E5FFE" stroke-width="1.11087" stroke-linecap="round" stroke-linejoin="round"/>
<path d="M17.2959 18.9253V19.4411C17.2959 19.5244 17.2628 19.6043 17.2039 19.6632C17.145 19.7221 17.0651 19.7551 16.9818 19.7551C16.8985 19.7551 16.8186 19.7221 16.7597 19.6632C16.7008 19.6043 16.6677 19.5244 16.6677 19.4411V18.9114C16.4597 18.8772 16.2605 18.802 16.0819 18.6901C15.9032 18.5782 15.7485 18.4319 15.627 18.2596C15.5827 18.2034 15.558 18.1343 15.5566 18.0628C15.5566 18.0222 15.5648 17.9819 15.5807 17.9446C15.5967 17.9072 15.6201 17.8735 15.6494 17.8455C15.6788 17.8174 15.7136 17.7956 15.7516 17.7814C15.7896 17.7671 15.8302 17.7608 15.8707 17.7627C15.911 17.7625 15.9508 17.7712 15.9873 17.7882C16.0238 17.8052 16.056 17.8303 16.0817 17.8613C16.2317 18.0572 16.4352 18.2053 16.6677 18.2878V17.0971C16.0442 16.8533 15.7301 16.4876 15.7301 16.0141C15.7395 15.7606 15.8391 15.5188 16.011 15.3323C16.183 15.1457 16.4158 15.0268 16.6677 14.9968V14.4811C16.6677 14.3978 16.7008 14.3179 16.7597 14.259C16.8186 14.2001 16.8985 14.167 16.9818 14.167C17.0651 14.167 17.145 14.2001 17.2039 14.259C17.2628 14.3179 17.2959 14.3978 17.2959 14.4811V14.9921C17.4703 15.0194 17.6375 15.0817 17.7873 15.1751C17.9372 15.2686 18.0666 15.3912 18.1679 15.5359C18.2126 15.5886 18.2389 15.6545 18.2429 15.7234C18.2442 15.7636 18.2373 15.8036 18.2228 15.8411C18.2083 15.8786 18.1864 15.9128 18.1584 15.9417C18.1304 15.9706 18.0969 15.9935 18.0599 16.0091C18.0229 16.0248 17.9831 16.0329 17.9429 16.0328C17.9008 16.0326 17.8594 16.0233 17.8214 16.0055C17.7834 15.9877 17.7496 15.9618 17.7225 15.9297C17.6107 15.7901 17.4634 15.6832 17.2959 15.6204V16.6752L17.4131 16.722C18.0085 16.9564 18.3788 17.2939 18.3788 17.8284C18.3719 18.1147 18.256 18.3876 18.0548 18.5915C17.8535 18.7953 17.5822 18.9147 17.2959 18.9253ZM16.6677 16.4032V15.639C16.592 15.6664 16.5269 15.717 16.4815 15.7835C16.4361 15.8499 16.4127 15.9289 16.4145 16.0094C16.4137 16.0925 16.4373 16.1742 16.4823 16.2441C16.5273 16.3141 16.5917 16.3694 16.6677 16.4032ZM17.6944 17.8425C17.6944 17.6174 17.5397 17.4815 17.2959 17.3736V18.3113C17.4077 18.2943 17.5096 18.2375 17.5828 18.1514C17.656 18.0652 17.6957 17.9555 17.6944 17.8425Z" fill="#0E5FFE"/>
</g>
<defs>
<clipPath id="clip0_688_2920">
<rect width="11.7202" height="11.7202" fill="white" transform="translate(11.1074 10.9043)"/>
</clipPath>
</defs>
</svg>
