<svg width="253" height="86" viewBox="0 0 253 86" fill="none" xmlns="http://www.w3.org/2000/svg">
<path d="M150.5 59.4623L149.036 59.137L150.5 59.4623ZM105.995 80.0152L105.102 81.2209L105.995 80.0152ZM132.47 13.6707L132.996 15.0755L132.47 13.6707ZM252.638 12.0588C253.089 12.7535 252.891 13.6825 252.197 14.1338L240.875 21.4873C240.18 21.9385 239.251 21.7411 238.8 21.0464C238.349 20.3517 238.546 19.4226 239.241 18.9714L249.305 12.435L242.768 2.37141C242.317 1.67667 242.514 0.747659 243.209 0.296416C243.904 -0.154835 244.833 0.0425606 245.284 0.737304L252.638 12.0588ZM151.965 59.7877C149.364 71.4932 140.828 79.2095 131.461 82.8265C122.169 86.4148 111.689 86.0958 105.102 81.2209L106.887 78.8095C112.37 82.8679 121.673 83.3904 130.38 80.0279C139.014 76.6941 146.696 69.6673 149.036 59.137L151.965 59.7877ZM105.102 81.2209C97.8608 75.861 94.734 69.1589 94.5274 62.0306C94.3233 54.9844 96.9725 47.6647 100.974 40.9257C104.985 34.1706 110.424 27.8812 115.979 22.8589C121.516 17.853 127.268 14.0166 131.944 12.266L132.996 15.0755C128.81 16.6427 123.381 20.2117 117.991 25.0842C112.62 29.9404 107.387 36.0024 103.554 42.4573C99.7112 48.9283 97.3446 55.6772 97.5262 61.9437C97.7054 68.1281 100.366 73.9829 106.887 78.8095L105.102 81.2209ZM131.944 12.266C154.472 3.83146 184.479 3.66099 208.693 5.54329C220.831 6.48686 231.573 7.95181 239.281 9.18082C243.135 9.79544 246.233 10.3513 248.369 10.7541C249.438 10.9554 250.266 11.1185 250.828 11.2315C251.109 11.2881 251.323 11.332 251.468 11.362C251.541 11.377 251.596 11.3885 251.633 11.3964C251.652 11.4003 251.666 11.4033 251.676 11.4053C251.681 11.4063 251.684 11.4071 251.687 11.4077C251.688 11.4079 251.689 11.4082 251.69 11.4083C251.691 11.4085 251.691 11.4086 251.38 12.8758C251.068 14.3431 251.068 14.3431 251.067 14.343C251.067 14.3429 251.066 14.3428 251.065 14.3426C251.063 14.3422 251.06 14.3415 251.056 14.3406C251.048 14.3389 251.035 14.3361 251.018 14.3325C250.983 14.3252 250.93 14.3143 250.861 14.2998C250.721 14.2709 250.512 14.2281 250.236 14.1727C249.685 14.0619 248.869 13.9012 247.814 13.7021C245.702 13.3041 242.632 12.7531 238.808 12.1434C231.159 10.9237 220.499 9.47014 208.46 8.53427C184.32 6.65768 154.873 6.88465 132.996 15.0755L131.944 12.266ZM1.89308 2.48175C6.18128 5.66044 9.63257 10.1307 13.0402 14.3488C16.5041 18.6365 19.961 22.7203 24.3786 25.5661C28.7349 28.3725 34.0907 30.0113 41.4202 29.2317C48.8039 28.4463 58.2375 25.2001 70.6684 18.1068L72.1552 20.7124C59.535 27.9138 49.6911 31.3689 41.7375 32.2149C33.7296 33.0666 27.6881 31.2668 22.7539 28.0881C17.8808 24.9488 14.1537 20.501 10.7066 16.2341C7.20333 11.8976 4.01674 7.79028 0.10658 4.89181L1.89308 2.48175ZM70.6684 18.1068C96.0798 3.60647 118.435 4.60413 133.508 14.1081C148.555 23.5956 156.05 41.4015 151.965 59.7877L149.036 59.137C152.854 41.9553 145.855 25.4401 131.908 16.6458C117.987 7.86802 96.8462 6.62323 72.1552 20.7124L70.6684 18.1068Z" fill="#93CE38"/>
</svg>
