<svg width="27" height="27" viewBox="0 0 27 27" fill="none" xmlns="http://www.w3.org/2000/svg">
<path d="M21.0602 3.58594H17.8202C16.6272 3.58594 15.6602 4.553 15.6602 5.74594V8.98594C15.6602 10.1789 16.6272 11.1459 17.8202 11.1459H21.0602C22.2531 11.1459 23.2202 10.1789 23.2202 8.98594V5.74594C23.2202 4.553 22.2531 3.58594 21.0602 3.58594Z" stroke="#9D9D9D" stroke-width="2.16" stroke-linecap="round" stroke-linejoin="round"/>
<path d="M9.1793 3.58594H5.9393C4.74636 3.58594 3.7793 4.553 3.7793 5.74594V8.98594C3.7793 10.1789 4.74636 11.1459 5.9393 11.1459H9.1793C10.3722 11.1459 11.3393 10.1789 11.3393 8.98594V5.74594C11.3393 4.553 10.3722 3.58594 9.1793 3.58594Z" stroke="#9D9D9D" stroke-width="2.16" stroke-linecap="round" stroke-linejoin="round"/>
<path d="M21.0602 15.4658H17.8202C16.6272 15.4658 15.6602 16.4329 15.6602 17.6258V20.8658C15.6602 22.0588 16.6272 23.0258 17.8202 23.0258H21.0602C22.2531 23.0258 23.2202 22.0588 23.2202 20.8658V17.6258C23.2202 16.4329 22.2531 15.4658 21.0602 15.4658Z" stroke="#9D9D9D" stroke-width="2.16" stroke-linecap="round" stroke-linejoin="round"/>
<path d="M9.1793 15.4658H5.9393C4.74636 15.4658 3.7793 16.4329 3.7793 17.6258V20.8658C3.7793 22.0588 4.74636 23.0258 5.9393 23.0258H9.1793C10.3722 23.0258 11.3393 22.0588 11.3393 20.8658V17.6258C11.3393 16.4329 10.3722 15.4658 9.1793 15.4658Z" stroke="#9D9D9D" stroke-width="2.16" stroke-linecap="round" stroke-linejoin="round"/>
</svg>
