<svg width="191" height="63" viewBox="0 0 191 63" fill="none" xmlns="http://www.w3.org/2000/svg">
<path d="M2.58349 9.27536H10.334L18.5198 29.2466H18.8682L27.0541 9.27536H34.8045V39H28.7087V19.6529H28.4619L20.7695 38.8549H16.6185L8.9261 19.5803H8.67936V39H2.58349V9.27536Z" fill="#0E5FFE"/>
<path d="M10.9221 53.8448C10.877 53.4644 10.6943 53.1691 10.374 52.9589C10.0537 52.7487 9.66084 52.6436 9.19539 52.6436C8.85506 52.6436 8.55728 52.6987 8.30203 52.8088C8.04929 52.9189 7.8516 53.0703 7.70896 53.263C7.56883 53.4557 7.49876 53.6746 7.49876 53.9199C7.49876 54.1251 7.54756 54.3015 7.64515 54.4491C7.74525 54.5943 7.87287 54.7156 8.02802 54.8132C8.18317 54.9083 8.34582 54.9871 8.51599 55.0497C8.68615 55.1098 8.84255 55.1586 8.98519 55.1961L9.76594 55.4063C9.96614 55.4589 10.1888 55.5314 10.4341 55.624C10.6818 55.7166 10.9183 55.843 11.1435 56.0031C11.3712 56.1608 11.5589 56.3635 11.7066 56.6112C11.8542 56.859 11.928 57.163 11.928 57.5233C11.928 57.9387 11.8192 58.3141 11.6015 58.6494C11.3863 58.9847 11.0709 59.2513 10.6555 59.4489C10.2427 59.6466 9.74092 59.7455 9.15035 59.7455C8.59982 59.7455 8.12311 59.6566 7.72022 59.479C7.31984 59.3013 7.00453 59.0536 6.77431 58.7358C6.54659 58.418 6.41772 58.0488 6.38769 57.6284H7.34861C7.37364 57.9187 7.47123 58.159 7.6414 58.3491C7.81406 58.5368 8.03177 58.677 8.29452 58.7695C8.55978 58.8596 8.84506 58.9047 9.15035 58.9047C9.50569 58.9047 9.82475 58.8471 10.1075 58.732C10.3903 58.6144 10.6143 58.4517 10.7794 58.244C10.9446 58.0338 11.0272 57.7886 11.0272 57.5083C11.0272 57.2531 10.9558 57.0454 10.8132 56.8852C10.6706 56.7251 10.4829 56.5949 10.2502 56.4949C10.0174 56.3948 9.76594 56.3072 9.49568 56.2321L8.54977 55.9618C7.94919 55.7892 7.47373 55.5427 7.1234 55.2224C6.77306 54.9021 6.59789 54.4829 6.59789 53.9649C6.59789 53.5345 6.71425 53.1591 6.94698 52.8388C7.1822 52.516 7.49751 52.2658 7.89289 52.0881C8.29077 51.9079 8.73495 51.8178 9.22542 51.8178C9.7209 51.8178 10.1613 51.9067 10.5467 52.0844C10.9321 52.2595 11.2374 52.4998 11.4626 52.805C11.6903 53.1103 11.8104 53.4569 11.8229 53.8448H10.9221ZM18.3208 59.6104V51.9229H22.9603V52.7487H19.2517V55.3462H22.7201V56.172H19.2517V58.7846H23.0204V59.6104H18.3208ZM35.5963 51.9229V59.6104H34.6955L30.5064 53.5745H30.4314V59.6104H29.5005V51.9229H30.4013L34.6054 57.9738H34.6805V51.9229H35.5963ZM44.6936 59.6104H42.3214V51.9229H44.7987C45.5445 51.9229 46.1826 52.0768 46.7131 52.3846C47.2436 52.6899 47.6502 53.1291 47.933 53.7022C48.2158 54.2727 48.3572 54.9559 48.3572 55.7516C48.3572 56.5524 48.2145 57.2418 47.9293 57.8199C47.644 58.3954 47.2286 58.8384 46.6831 59.1487C46.1375 59.4565 45.4744 59.6104 44.6936 59.6104ZM43.2522 58.7846H44.6336C45.2692 58.7846 45.7959 58.6619 46.2138 58.4167C46.6318 58.1715 46.9433 57.8224 47.1485 57.3694C47.3537 56.9165 47.4563 56.3772 47.4563 55.7516C47.4563 55.131 47.3549 54.5968 47.1523 54.1488C46.9496 53.6984 46.6468 53.3531 46.2439 53.1128C45.841 52.8701 45.3393 52.7487 44.7387 52.7487H43.2522V58.7846ZM62.6161 51.9229H63.7272L66.3397 58.3041H66.4298L69.0423 51.9229H70.1534V59.6104H69.2825V53.7697H69.2074L66.8051 59.6104H65.9643L63.562 53.7697H63.4869V59.6104H62.6161V51.9229ZM83.3684 55.7666C83.3684 56.5774 83.222 57.2781 82.9292 57.8687C82.6364 58.4592 82.2348 58.9147 81.7243 59.235C81.2138 59.5553 80.6307 59.7155 79.9751 59.7155C79.3195 59.7155 78.7364 59.5553 78.2259 59.235C77.7154 58.9147 77.3138 58.4592 77.021 57.8687C76.7282 57.2781 76.5818 56.5774 76.5818 55.7666C76.5818 54.9559 76.7282 54.2552 77.021 53.6646C77.3138 53.0741 77.7154 52.6186 78.2259 52.2983C78.7364 51.978 79.3195 51.8178 79.9751 51.8178C80.6307 51.8178 81.2138 51.978 81.7243 52.2983C82.2348 52.6186 82.6364 53.0741 82.9292 53.6646C83.222 54.2552 83.3684 54.9559 83.3684 55.7666ZM82.4675 55.7666C82.4675 55.101 82.3562 54.5392 82.1334 54.0813C81.9132 53.6233 81.6142 53.2768 81.2363 53.0415C80.861 52.8063 80.4406 52.6887 79.9751 52.6887C79.5097 52.6887 79.088 52.8063 78.7101 53.0415C78.3348 53.2768 78.0357 53.6233 77.813 54.0813C77.5928 54.5392 77.4827 55.101 77.4827 55.7666C77.4827 56.4323 77.5928 56.9941 77.813 57.452C78.0357 57.91 78.3348 58.2565 78.7101 58.4918C79.088 58.727 79.5097 58.8446 79.9751 58.8446C80.4406 58.8446 80.861 58.727 81.2363 58.4918C81.6142 58.2565 81.9132 57.91 82.1334 57.452C82.3562 56.9941 82.4675 56.4323 82.4675 55.7666ZM95.8918 51.9229V59.6104H94.9909L90.8019 53.5745H90.7268V59.6104H89.7959V51.9229H90.6968L94.9008 57.9738H94.9759V51.9229H95.8918ZM102.617 59.6104V51.9229H107.256V52.7487H103.548V55.3462H107.016V56.172H103.548V58.7846H107.316V59.6104H102.617ZM113.136 51.9229H114.202L116.334 55.5114H116.424L118.556 51.9229H119.622L116.844 56.4423V59.6104H115.913V56.4423L113.136 51.9229ZM133.523 59.6104V51.9229H138.133V52.7487H134.454V55.3462H137.788V56.172H134.454V59.6104H133.523ZM143.945 59.6104H142.969L145.792 51.9229H146.753L149.575 59.6104H148.599L146.302 53.1391H146.242L143.945 59.6104ZM144.305 56.6075H148.239V57.4333H144.305V56.6075ZM159.839 53.8448C159.794 53.4644 159.611 53.1691 159.291 52.9589C158.971 52.7487 158.578 52.6436 158.112 52.6436C157.772 52.6436 157.474 52.6987 157.219 52.8088C156.966 52.9189 156.769 53.0703 156.626 53.263C156.486 53.4557 156.416 53.6746 156.416 53.9199C156.416 54.1251 156.464 54.3015 156.562 54.4491C156.662 54.5943 156.79 54.7156 156.945 54.8132C157.1 54.9083 157.263 54.9871 157.433 55.0497C157.603 55.1098 157.759 55.1586 157.902 55.1961L158.683 55.4063C158.883 55.4589 159.106 55.5314 159.351 55.624C159.599 55.7166 159.835 55.843 160.06 56.0031C160.288 56.1608 160.476 56.3635 160.623 56.6112C160.771 56.859 160.845 57.163 160.845 57.5233C160.845 57.9387 160.736 58.3141 160.518 58.6494C160.303 58.9847 159.988 59.2513 159.572 59.4489C159.16 59.6466 158.658 59.7455 158.067 59.7455C157.517 59.7455 157.04 59.6566 156.637 59.479C156.237 59.3013 155.921 59.0536 155.691 58.7358C155.464 58.418 155.335 58.0488 155.305 57.6284H156.266C156.291 57.9187 156.388 58.159 156.558 58.3491C156.731 58.5368 156.949 58.677 157.211 58.7695C157.477 58.8596 157.762 58.9047 158.067 58.9047C158.423 58.9047 158.742 58.8471 159.024 58.732C159.307 58.6144 159.531 58.4517 159.696 58.244C159.862 58.0338 159.944 57.7886 159.944 57.5083C159.944 57.2531 159.873 57.0454 159.73 56.8852C159.587 56.7251 159.4 56.5949 159.167 56.4949C158.934 56.3948 158.683 56.3072 158.413 56.2321L157.467 55.9618C156.866 55.7892 156.391 55.5427 156.04 55.2224C155.69 54.9021 155.515 54.4829 155.515 53.9649C155.515 53.5345 155.631 53.1591 155.864 52.8388C156.099 52.516 156.414 52.2658 156.81 52.0881C157.208 51.9079 157.652 51.8178 158.142 51.8178C158.638 51.8178 159.078 51.9067 159.464 52.0844C159.849 52.2595 160.154 52.4998 160.38 52.805C160.607 53.1103 160.727 53.4569 160.74 53.8448H159.839ZM166.817 52.7487V51.9229H172.583V52.7487H170.166V59.6104H169.235V52.7487H166.817Z" fill="#0E5FFE"/>
<path d="M74.519 39V9.27536H80.702V20.4511H80.8907C81.1616 19.8512 81.5535 19.2416 82.0663 18.6224C82.5888 17.9934 83.2661 17.4709 84.0983 17.0549C84.9401 16.6291 85.9851 16.4162 87.2333 16.4162C88.8588 16.4162 90.3586 16.842 91.7326 17.6935C93.1066 18.5353 94.2048 19.8077 95.0273 21.5107C95.8498 23.2039 96.261 25.3278 96.261 27.8823C96.261 30.369 95.8594 32.4687 95.0563 34.1814C94.2629 35.8843 93.1792 37.1761 91.8052 38.0566C90.4409 38.9274 88.9121 39.3628 87.2188 39.3628C86.0189 39.3628 84.9981 39.1645 84.1563 38.7678C83.3242 38.3711 82.642 37.8727 82.1098 37.2728C81.5777 36.6632 81.1713 36.0488 80.8907 35.4296H80.6149V39H74.519ZM80.5714 27.8533C80.5714 29.1789 80.7552 30.3352 81.1229 31.3221C81.4906 32.3091 82.0228 33.0783 82.7194 33.6298C83.4161 34.1717 84.2628 34.4426 85.2594 34.4426C86.2657 34.4426 87.1172 34.1668 87.8138 33.6153C88.5105 33.0541 89.0379 32.28 89.3959 31.2931C89.7636 30.2964 89.9474 29.1498 89.9474 27.8533C89.9474 26.5664 89.7684 25.4343 89.4104 24.457C89.0524 23.4797 88.525 22.7153 87.8284 22.1638C87.1317 21.6122 86.2754 21.3365 85.2594 21.3365C84.2531 21.3365 83.4016 21.6026 82.7049 22.1348C82.0179 22.6669 81.4906 23.4217 81.1229 24.3989C80.7552 25.3762 80.5714 26.5277 80.5714 27.8533ZM102.635 39V16.7065H108.817V39H102.635ZM105.74 13.8328C104.821 13.8328 104.033 13.528 103.375 12.9184C102.726 12.2991 102.402 11.5589 102.402 10.6977C102.402 9.84625 102.726 9.11571 103.375 8.50612C104.033 7.88686 104.821 7.57723 105.74 7.57723C106.66 7.57723 107.443 7.88686 108.092 8.50612C108.75 9.11571 109.079 9.84625 109.079 10.6977C109.079 11.5589 108.75 12.2991 108.092 12.9184C107.443 13.528 106.66 13.8328 105.74 13.8328ZM116.134 39V9.27536H127.862C130.116 9.27536 132.037 9.70595 133.624 10.5671C135.211 11.4186 136.42 12.6039 137.252 14.123C138.094 15.6325 138.515 17.3742 138.515 19.3481C138.515 21.322 138.089 23.0636 137.238 24.5731C136.386 26.0826 135.153 27.2582 133.537 28.1C131.93 28.9418 129.986 29.3627 127.702 29.3627H120.227V24.3264H126.686C127.896 24.3264 128.892 24.1183 129.676 23.7023C130.469 23.2765 131.06 22.6911 131.447 21.9461C131.843 21.1913 132.042 20.3253 132.042 19.3481C132.042 18.3611 131.843 17.5 131.447 16.7646C131.06 16.0195 130.469 15.4438 129.676 15.0374C128.883 14.6213 127.876 14.4133 126.657 14.4133H122.419V39H116.134ZM150.487 39.4209C149.065 39.4209 147.797 39.1742 146.685 38.6807C145.572 38.1775 144.691 37.4373 144.043 36.4601C143.404 35.4731 143.085 34.2443 143.085 32.7735C143.085 31.535 143.313 30.4948 143.767 29.653C144.222 28.8112 144.841 28.1339 145.625 27.621C146.409 27.1082 147.299 26.7212 148.296 26.4599C149.302 26.1987 150.357 26.0148 151.46 25.9084C152.756 25.7729 153.801 25.6471 154.595 25.531C155.388 25.4052 155.964 25.2214 156.322 24.9795C156.68 24.7376 156.859 24.3796 156.859 23.9055V23.8184C156.859 22.8992 156.569 22.188 155.988 21.6848C155.417 21.1817 154.604 20.9301 153.55 20.9301C152.437 20.9301 151.552 21.1768 150.894 21.6703C150.236 22.1541 149.8 22.7637 149.587 23.4991L143.869 23.0346C144.159 21.68 144.73 20.5092 145.582 19.5222C146.433 18.5256 147.531 17.7612 148.876 17.229C150.231 16.6872 151.798 16.4162 153.579 16.4162C154.817 16.4162 156.003 16.5614 157.135 16.8517C158.276 17.1419 159.288 17.5919 160.168 18.2015C161.058 18.8111 161.76 19.5948 162.273 20.5527C162.785 21.501 163.042 22.6379 163.042 23.9635V39H157.178V35.9085H157.004C156.646 36.6052 156.167 37.2196 155.567 37.7518C154.967 38.2743 154.246 38.6855 153.405 38.9855C152.563 39.2758 151.59 39.4209 150.487 39.4209ZM152.258 35.1538C153.168 35.1538 153.971 34.9748 154.667 34.6168C155.364 34.2491 155.911 33.7556 156.307 33.1364C156.704 32.5171 156.902 31.8156 156.902 31.0318V28.666C156.709 28.7918 156.443 28.9079 156.104 29.0144C155.775 29.1111 155.403 29.2031 154.987 29.2901C154.571 29.3676 154.154 29.4401 153.738 29.5079C153.322 29.5659 152.945 29.6191 152.606 29.6675C151.881 29.7739 151.247 29.9433 150.705 30.1755C150.163 30.4077 149.742 30.7222 149.442 31.1189C149.142 31.5059 148.992 31.9897 148.992 32.5703C148.992 33.4121 149.297 34.0556 149.907 34.5007C150.526 34.9361 151.31 35.1538 152.258 35.1538ZM173.106 47.3601C172.322 47.3601 171.586 47.2972 170.899 47.1714C170.222 47.0553 169.661 46.9053 169.216 46.7214L170.609 42.106C171.335 42.3285 171.988 42.4495 172.569 42.4688C173.159 42.4882 173.667 42.3527 174.092 42.0625C174.528 41.7722 174.881 41.2787 175.152 40.582L175.515 39.6386L167.518 16.7065H174.02L178.635 33.0783H178.868L183.527 16.7065H190.072L181.408 41.4093C180.991 42.6091 180.425 43.6542 179.709 44.5443C179.003 45.4442 178.108 46.136 177.024 46.6198C175.941 47.1133 174.634 47.3601 173.106 47.3601Z" fill="#0E5FFE"/>
<path d="M54.9354 4.96094C46.9721 4.96094 40.5156 11.3964 40.5156 19.3338C40.5156 22.4593 41.5436 25.3273 43.2524 27.6761C43.283 27.7324 43.2878 27.7953 43.3227 27.8492L52.9359 42.2221C53.3817 42.8886 54.1327 43.2887 54.9354 43.2887C55.7381 43.2887 56.4891 42.8886 56.9349 42.2221L66.5481 27.8492C66.5836 27.7953 66.5878 27.7324 66.6184 27.6761C68.3272 25.3273 69.3552 22.4593 69.3552 19.3338C69.3552 11.3964 62.8987 4.96094 54.9354 4.96094ZM54.9354 24.1248C52.281 24.1248 50.1288 21.9796 50.1288 19.3338C50.1288 16.688 52.281 14.5429 54.9354 14.5429C57.5898 14.5429 59.742 16.688 59.742 19.3338C59.742 21.9796 57.5898 24.1248 54.9354 24.1248Z" fill="#93CE38"/>
</svg>
