<svg width="22" height="22" viewBox="0 0 22 22" fill="none" xmlns="http://www.w3.org/2000/svg">
<path d="M17.1867 8.90045V8.25456C17.1867 4.70822 14.4168 1.83334 11 1.83334C7.58318 1.83334 4.8133 4.70822 4.8133 8.25456V8.90045C4.8133 9.67561 4.59224 10.4333 4.17798 11.0783L3.16283 12.6587C2.23559 14.1023 2.94346 16.0645 4.55616 16.521C8.77501 17.7152 13.225 17.7152 17.4438 16.521C19.0566 16.0645 19.7644 14.1023 18.8371 12.6587L17.822 11.0783C17.4078 10.4333 17.1867 9.67561 17.1867 8.90045Z" stroke="white" stroke-width="1.625"/>
<path d="M6.875 17.4167C7.47544 19.0188 9.09559 20.1667 11 20.1667C12.9044 20.1667 14.5246 19.0188 15.125 17.4167" stroke="white" stroke-width="1.625" stroke-linecap="round"/>
</svg>
