<svg width="24" height="24" viewBox="0 0 24 24" fill="none" xmlns="http://www.w3.org/2000/svg">
<path d="M12.8351 16.2916V17.3477C12.8351 17.5183 12.7672 17.6818 12.6466 17.8024C12.526 17.9231 12.3624 17.9908 12.1918 17.9908C12.0212 17.9908 11.8576 17.9231 11.737 17.8024C11.6164 17.6818 11.5487 17.5183 11.5487 17.3477V16.2627C11.1229 16.1926 10.7157 16.0373 10.3512 15.8064C9.98672 15.5756 9.6724 15.2737 9.42701 14.9188C9.32861 14.8113 9.27387 14.6709 9.27344 14.5251C9.27334 14.442 9.29011 14.3597 9.32277 14.2832C9.35543 14.2068 9.40332 14.1377 9.46345 14.0803C9.5236 14.0229 9.59473 13.9781 9.67263 13.949C9.75053 13.9199 9.83354 13.9069 9.91662 13.9108C9.99906 13.9103 10.0805 13.9282 10.1552 13.9631C10.23 13.9979 10.2961 14.0489 10.3487 14.1124C10.6557 14.5135 11.0725 14.8169 11.5487 14.9859V12.5477C10.2719 12.0389 9.62863 11.2996 9.62863 10.33C9.64787 9.81096 9.85188 9.31582 10.2039 8.93386C10.5559 8.55192 11.0329 8.30834 11.5487 8.24691V7.18121C11.5487 7.01063 11.6164 6.84691 11.737 6.72628C11.8576 6.60566 12.0212 6.53809 12.1918 6.53809C12.3624 6.53809 12.526 6.60566 12.6466 6.72628C12.7672 6.84691 12.8351 7.01063 12.8351 7.18121V8.23731C13.1938 8.29259 13.5377 8.41955 13.8461 8.6109C14.1546 8.80225 14.4214 9.05397 14.6303 9.35082C14.7149 9.46188 14.765 9.59535 14.7742 9.73473C14.7768 9.817 14.7629 9.89908 14.7331 9.97588C14.7033 10.0527 14.6585 10.1226 14.6012 10.1817C14.5439 10.2407 14.4752 10.2879 14.3995 10.3199C14.3237 10.352 14.2421 10.3685 14.1598 10.3684C14.074 10.3674 13.9893 10.348 13.9115 10.3115C13.8337 10.2751 13.7645 10.2225 13.7087 10.1573C13.4797 9.87134 13.178 9.65227 12.8351 9.52355V11.6835L13.0751 11.7796C14.2943 12.25 15.0527 12.9411 15.0527 14.0451C15.0362 14.6307 14.798 15.1884 14.3864 15.6053C13.9749 16.0223 13.4204 16.2675 12.8351 16.2916ZM11.5487 11.1269V9.5716C11.3937 9.62779 11.2603 9.73128 11.1673 9.8674C11.0743 10.0034 11.0264 10.1653 11.0303 10.33C11.0381 10.4932 11.0906 10.6511 11.1821 10.7866C11.2734 10.9221 11.4003 11.0298 11.5487 11.0981V11.1269ZM13.6607 14.0739C13.6607 13.6035 13.3343 13.3251 12.8351 13.1139V15.0339C13.0708 15.0008 13.2857 14.8813 13.4382 14.6985C13.5908 14.5158 13.6701 14.2829 13.6607 14.0451V14.0739Z" fill="#0E5FFE"/>
<path d="M12.5572 3.81152H6.24039C5.22196 3.81152 4.2453 4.21615 3.52516 4.93629C2.80502 5.65643 2.40039 6.63309 2.40039 7.65152V17.2516C2.40039 18.2699 2.80502 19.2466 3.52516 19.9667C4.2453 20.6869 5.22196 21.0916 6.24039 21.0916H17.7604C18.7789 21.0916 19.7556 20.6869 20.4757 19.9667C21.1958 19.2466 21.6004 18.2699 21.6004 17.2516V11.4243" stroke="#0E5FFE" stroke-width="1.44" stroke-linecap="round" stroke-linejoin="round"/>
<path d="M16.166 8.23633L21.5996 2.80273" stroke="#0E5FFE" stroke-width="1.44" stroke-linecap="round" stroke-linejoin="round"/>
<path d="M17.2617 2.80273H21.6009V7.15153" stroke="#0E5FFE" stroke-width="1.44" stroke-linecap="round" stroke-linejoin="round"/>
</svg>
