<svg width="24" height="24" viewBox="0 0 24 24" fill="none" xmlns="http://www.w3.org/2000/svg">
<path d="M4.32031 8.43826V17.8175C4.32031 18.8359 4.72494 19.8126 5.44508 20.5327C6.16522 21.2529 7.14188 21.6575 8.16031 21.6575H15.8403C16.8588 21.6575 17.8355 21.2529 18.5556 20.5327C19.2758 19.8126 19.6803 18.8359 19.6803 17.8175V8.42871" stroke="white" stroke-opacity="0.7" stroke-width="1.62" stroke-linecap="round" stroke-linejoin="round"/>
<path d="M9.11914 13.0176H14.8791" stroke="white" stroke-opacity="0.7" stroke-width="1.62" stroke-linecap="round" stroke-linejoin="round"/>
<path d="M21.6004 6.29801C21.6004 5.27957 21.1958 4.30285 20.4757 3.58272C19.7556 2.86257 18.7789 2.45801 17.7604 2.45801H6.24039C5.22196 2.45801 4.2453 2.86257 3.52516 3.58272C2.80502 4.30285 2.40039 5.27957 2.40039 6.29801C2.40039 6.80722 2.6027 7.29561 2.96278 7.65568C3.32284 8.01576 3.81118 8.21801 4.32039 8.21801H19.6804C20.1896 8.21801 20.678 8.01576 21.038 7.65568C21.3981 7.29561 21.6004 6.80722 21.6004 6.29801Z" stroke="white" stroke-opacity="0.7" stroke-width="1.62" stroke-linecap="round" stroke-linejoin="round"/>
</svg>
