<svg width="26" height="26" viewBox="0 0 26 26" fill="none" xmlns="http://www.w3.org/2000/svg">
<path d="M12.9996 3.08887C10.9427 3.08887 8.93197 3.69882 7.2217 4.84158C5.51143 5.98435 4.17842 7.60854 3.39127 9.50889C2.60412 11.4092 2.39816 13.5004 2.79944 15.5178C3.20073 17.5352 4.19123 19.3883 5.64571 20.8427C7.10017 22.2972 8.95329 23.2878 10.9707 23.689C12.9881 24.0903 15.0792 23.8843 16.9796 23.0971C18.8799 22.3101 20.5041 20.977 21.6469 19.2667C22.7896 17.5564 23.3996 15.5458 23.3996 13.4889" stroke="#D7D7D7" stroke-opacity="0.7" stroke-width="1.8" stroke-linecap="round" stroke-linejoin="round"/>
<path d="M13.7276 17.7942V18.9383C13.7276 19.1231 13.6541 19.3005 13.5235 19.4311C13.3927 19.5618 13.2155 19.635 13.0307 19.635C12.8459 19.635 12.6687 19.5618 12.5381 19.4311C12.4073 19.3005 12.3339 19.1231 12.3339 18.9383V17.7632C11.8725 17.6874 11.4307 17.5206 11.0343 17.2725C10.6379 17.0242 10.2949 16.6995 10.0251 16.3174C9.9269 16.1927 9.87214 16.0394 9.86914 15.8807C9.86905 15.7907 9.88724 15.7013 9.92263 15.6184C9.95801 15.5357 10.0099 15.4608 10.075 15.3986C10.1402 15.3364 10.2173 15.2879 10.3016 15.2564C10.386 15.2248 10.476 15.2108 10.566 15.215C10.6553 15.2145 10.7436 15.2338 10.8245 15.2716C10.9054 15.3093 10.9769 15.3649 11.0339 15.4336C11.3666 15.8682 11.8182 16.1969 12.3339 16.3799V13.7383C10.9507 13.1975 10.2539 12.3862 10.2539 11.3358C10.2748 10.7735 10.4958 10.2371 10.8772 9.82331C11.2586 9.40952 11.7751 9.14565 12.3339 9.0791V7.935C12.3339 7.7502 12.4073 7.5731 12.5381 7.44242C12.6687 7.31175 12.8459 7.23828 13.0307 7.23828C13.2155 7.23828 13.3927 7.31175 13.5235 7.44242C13.6541 7.5731 13.7276 7.7502 13.7276 7.935V9.06869C14.1146 9.12933 14.4854 9.26739 14.8177 9.47469C15.1501 9.68198 15.4373 9.95415 15.6619 10.275C15.761 10.392 15.8195 10.5381 15.8283 10.6911C15.8311 10.7803 15.816 10.869 15.7838 10.9522C15.7516 11.0354 15.703 11.1113 15.6409 11.1753C15.5788 11.2394 15.5045 11.2902 15.4224 11.3249C15.3402 11.3596 15.2519 11.3775 15.1627 11.3774C15.0695 11.3769 14.9776 11.3563 14.8932 11.3168C14.8089 11.2773 14.734 11.2199 14.6739 11.1487C14.426 10.8389 14.0991 10.6019 13.7276 10.4624V12.8024L13.9876 12.9062C15.3084 13.4262 16.13 14.1751 16.13 15.3607C16.1145 15.996 15.8573 16.6013 15.411 17.0535C14.9646 17.5057 14.3625 17.7705 13.7276 17.7942ZM12.3339 12.1991V10.5038C12.1661 10.5647 12.0216 10.6768 11.9208 10.8242C11.8202 10.9716 11.7682 11.147 11.7724 11.3254C11.7706 11.5099 11.8229 11.691 11.9226 11.8461C12.0224 12.0014 12.1653 12.1241 12.3339 12.1991ZM14.6115 15.3919C14.6115 14.8927 14.2684 14.5911 13.7276 14.3519V16.4319C13.9756 16.3944 14.2016 16.2683 14.3641 16.0773C14.5265 15.8861 14.6144 15.6428 14.6115 15.3919Z" fill="#D7D7D7" fill-opacity="0.7"/>
<path d="M17.5137 8.92351L23.4001 3.03711" stroke="#D7D7D7" stroke-opacity="0.7" stroke-width="1.8" stroke-linecap="round" stroke-linejoin="round"/>
<path d="M18.6895 3.03711H23.4007V7.74831" stroke="#D7D7D7" stroke-opacity="0.7" stroke-width="1.8" stroke-linecap="round" stroke-linejoin="round"/>
</svg>
